<svg xmlns="http://www.w3.org/2000/svg" viewBox="0 0 1600 260" fill="none">
  <defs>
    <linearGradient id="tubeSteel" x1="114" y1="0" x2="1486" y2="0" gradientUnits="userSpaceOnUse">
      <stop stop-color="#d7f7ff"/>
      <stop offset=".18" stop-color="#1a3642"/>
      <stop offset=".5" stop-color="#8f80ff"/>
      <stop offset=".82" stop-color="#3a121d"/>
      <stop offset="1" stop-color="#ffd2d6"/>
    </linearGradient>
    <linearGradient id="leftGlass" x1="150" y1="84" x2="695" y2="178" gradientUnits="userSpaceOnUse">
      <stop stop-color="#91f6ff" stop-opacity=".36"/>
      <stop offset=".44" stop-color="#0a2837" stop-opacity=".46"/>
      <stop offset="1" stop-color="#03080d" stop-opacity=".18"/>
    </linearGradient>
    <linearGradient id="rightGlass" x1="908" y1="178" x2="1458" y2="84" gradientUnits="userSpaceOnUse">
      <stop stop-color="#03080d" stop-opacity=".18"/>
      <stop offset=".56" stop-color="#37121f" stop-opacity=".48"/>
      <stop offset="1" stop-color="#ff7784" stop-opacity=".34"/>
    </linearGradient>
    <linearGradient id="leftStroke" x1="0" y1="0" x2="760" y2="0" gradientUnits="userSpaceOnUse">
      <stop stop-color="#f2feff"/>
      <stop offset=".16" stop-color="#4feaff"/>
      <stop offset=".74" stop-color="#64d8ff"/>
      <stop offset="1" stop-color="#9c84ff"/>
    </linearGradient>
    <linearGradient id="rightStroke" x1="840" y1="0" x2="1600" y2="0" gradientUnits="userSpaceOnUse">
      <stop stop-color="#9c84ff"/>
      <stop offset=".35" stop-color="#ff4d84"/>
      <stop offset=".88" stop-color="#ff6b74"/>
      <stop offset="1" stop-color="#ffd7d8"/>
    </linearGradient>
    <filter id="cyanGlow" x="-70" y="0" width="900" height="260" color-interpolation-filters="sRGB">
      <feGaussianBlur stdDeviation="5.5" result="blur"/>
      <feColorMatrix in="blur" type="matrix" values="0 0 0 0 .12 0 0 0 0 .86 0 0 0 0 1 0 0 0 .86 0"/>
      <feBlend in2="SourceGraphic" mode="screen"/>
    </filter>
    <filter id="redGlow" x="770" y="0" width="900" height="260" color-interpolation-filters="sRGB">
      <feGaussianBlur stdDeviation="5.5" result="blur"/>
      <feColorMatrix in="blur" type="matrix" values="0 0 0 0 1 0 0 0 0 .16 0 0 0 0 .28 0 0 0 .84 0"/>
      <feBlend in2="SourceGraphic" mode="screen"/>
    </filter>
    <filter id="centerGlow" x="735" y="40" width="130" height="180" color-interpolation-filters="sRGB">
      <feGaussianBlur stdDeviation="4" result="blur"/>
      <feColorMatrix in="blur" type="matrix" values="0 0 0 0 1 0 0 0 0 .74 0 0 0 0 .22 0 0 0 .82 0"/>
      <feBlend in2="SourceGraphic" mode="screen"/>
    </filter>
  </defs>

  <g filter="url(#cyanGlow)">
    <path d="M40 130 92 82 165 62h92l50 27h392l46 41-46 41H307l-50 27h-92l-73-20-52-48Z"
      fill="url(#leftGlass)" stroke="url(#leftStroke)" stroke-width="3.4" stroke-linejoin="round"/>
    <path d="M287 101h400l31 29-31 29H287l-44-29 44-29Z"
      fill="#06131b" fill-opacity=".3" stroke="#80efff" stroke-opacity=".64" stroke-width="2"/>
    <path d="M304 112h365" stroke="#a6f8ff" stroke-opacity=".58" stroke-width="2"/>
    <path d="M304 148h365" stroke="#37deff" stroke-opacity=".46" stroke-width="2"/>
    <circle cx="190" cy="130" r="92" fill="#051018" stroke="#a7f9ff" stroke-width="4"/>
    <circle cx="190" cy="130" r="70" fill="#040a0e" stroke="#31dcff" stroke-width="5"/>
    <circle cx="190" cy="130" r="51" fill="#02060a" stroke="#d8fbff" stroke-opacity=".16" stroke-width="2"/>
    <path d="M47 130h83" stroke="#e6fdff" stroke-opacity=".36" stroke-width="2"/>
    <path d="M245 130h35" stroke="#e6fdff" stroke-opacity=".4" stroke-width="2"/>
  </g>

  <g filter="url(#redGlow)">
    <path d="M1560 130 1508 82 1435 62h-92l-50 27H901l-46 41 46 41h392l50 27h92l73-20 52-48Z"
      fill="url(#rightGlass)" stroke="url(#rightStroke)" stroke-width="3.4" stroke-linejoin="round"/>
    <path d="M1313 101H913l-31 29 31 29h400l44-29-44-29Z"
      fill="#17070e" fill-opacity=".3" stroke="#ff7481" stroke-opacity=".64" stroke-width="2"/>
    <path d="M1296 112H931" stroke="#ffd7dc" stroke-opacity=".42" stroke-width="2"/>
    <path d="M1296 148H931" stroke="#ff5b72" stroke-opacity=".46" stroke-width="2"/>
    <circle cx="1410" cy="130" r="92" fill="#16070d" stroke="#ff8791" stroke-width="4"/>
    <circle cx="1410" cy="130" r="70" fill="#12050a" stroke="#ff4057" stroke-width="5"/>
    <circle cx="1410" cy="130" r="51" fill="#050207" stroke="#ffd7dc" stroke-opacity=".16" stroke-width="2"/>
    <path d="M1553 130h-83" stroke="#ffd7dc" stroke-opacity=".3" stroke-width="2"/>
    <path d="M1355 130h-35" stroke="#ffd7dc" stroke-opacity=".38" stroke-width="2"/>
  </g>

  <path d="M264 83h482l43 47-43 47H264" stroke="url(#tubeSteel)" stroke-opacity=".72" stroke-width="3"/>
  <path d="M1336 83H854l-43 47 43 47h482" stroke="url(#tubeSteel)" stroke-opacity=".72" stroke-width="3"/>
  <path d="M304 99h419l28 31-28 31H304" stroke="#47ddff" stroke-opacity=".28" stroke-width="2"/>
  <path d="M1296 99H877l-28 31 28 31h419" stroke="#ff4e64" stroke-opacity=".28" stroke-width="2"/>

  <g filter="url(#centerGlow)">
    <path d="M800 45 835 103v54l-35 58-35-58v-54l35-58Z" fill="#090f16" fill-opacity=".88" stroke="#f4d06d" stroke-width="3"/>
    <path d="M800 71 818 109v42l-18 38-18-38v-42l18-38Z" fill="#12192b" stroke="#8debff" stroke-opacity=".32" stroke-width="1.5"/>
    <path d="M800 77v106" stroke="#f8d27a" stroke-width="6" stroke-linecap="round"/>
    <path d="M780 130h40" stroke="#f8d27a" stroke-opacity=".7" stroke-width="2"/>
  </g>

  <path d="M308 80c98-18 286-16 402 2" stroke="#f0fdff" stroke-opacity=".28" stroke-width="1.6"/>
  <path d="M1292 80c-98-18-286-16-402 2" stroke="#ffe1e5" stroke-opacity=".22" stroke-width="1.6"/>
  <path d="M304 180c130 19 280 18 414 0" stroke="#46e5ff" stroke-opacity=".14" stroke-width="1.4"/>
  <path d="M1296 180c-130 19-280 18-414 0" stroke="#ff6374" stroke-opacity=".14" stroke-width="1.4"/>
</svg>
