<svg xmlns="http://www.w3.org/2000/svg" viewBox="0 0 960 110" fill="none">
  <defs>
    <linearGradient id="cyanStroke" x1="34" y1="0" x2="455" y2="0" gradientUnits="userSpaceOnUse">
      <stop stop-color="#c8fbff"/>
      <stop offset=".38" stop-color="#59e8ff"/>
      <stop offset="1" stop-color="#86a8ff"/>
    </linearGradient>
    <linearGradient id="redStroke" x1="505" y1="0" x2="926" y2="0" gradientUnits="userSpaceOnUse">
      <stop stop-color="#9b70ff"/>
      <stop offset=".48" stop-color="#ff4f91"/>
      <stop offset="1" stop-color="#ff8b92"/>
    </linearGradient>
    <linearGradient id="glassLeft" x1="42" y1="20" x2="455" y2="82" gradientUnits="userSpaceOnUse">
      <stop stop-color="#b7fbff" stop-opacity=".28"/>
      <stop offset=".43" stop-color="#163040" stop-opacity=".64"/>
      <stop offset="1" stop-color="#071019" stop-opacity=".2"/>
    </linearGradient>
    <linearGradient id="glassRight" x1="505" y1="82" x2="918" y2="20" gradientUnits="userSpaceOnUse">
      <stop stop-color="#100a1c" stop-opacity=".2"/>
      <stop offset=".58" stop-color="#3a1324" stop-opacity=".62"/>
      <stop offset="1" stop-color="#ffc0c5" stop-opacity=".2"/>
    </linearGradient>
    <filter id="blueGlow" x="-40" y="-30" width="560" height="170" color-interpolation-filters="sRGB">
      <feGaussianBlur stdDeviation="3.2" result="blur"/>
      <feColorMatrix in="blur" type="matrix" values="0 0 0 0 .16 0 0 0 0 .88 0 0 0 0 1 0 0 0 .75 0"/>
      <feBlend in2="SourceGraphic" mode="screen"/>
    </filter>
    <filter id="redGlow" x="440" y="-30" width="560" height="170" color-interpolation-filters="sRGB">
      <feGaussianBlur stdDeviation="3.2" result="blur"/>
      <feColorMatrix in="blur" type="matrix" values="0 0 0 0 1 0 0 0 0 .18 0 0 0 0 .34 0 0 0 .72 0"/>
      <feBlend in2="SourceGraphic" mode="screen"/>
    </filter>
    <filter id="goldGlow" x="410" y="-20" width="140" height="150" color-interpolation-filters="sRGB">
      <feGaussianBlur stdDeviation="3" result="blur"/>
      <feColorMatrix in="blur" type="matrix" values="0 0 0 0 1 0 0 0 0 .78 0 0 0 0 .2 0 0 0 .7 0"/>
      <feBlend in2="SourceGraphic" mode="screen"/>
    </filter>
  </defs>

  <path d="M80 21 H405 L452 48 L480 48 L480 78 L447 78 L407 93 H88 L42 73 L22 55 L42 37 L80 21Z"
        fill="url(#glassLeft)" stroke="url(#cyanStroke)" stroke-width="2.1" filter="url(#blueGlow)"/>
  <path d="M880 21 H555 L508 48 H480 V78 H513 L553 93 H872 L918 73 L938 55 L918 37 L880 21Z"
        fill="url(#glassRight)" stroke="url(#redStroke)" stroke-width="2.1" filter="url(#redGlow)"/>

  <path d="M104 31 H388 L428 55 L388 79 H104 L76 55 L104 31Z"
        fill="#07151f" fill-opacity=".58" stroke="#7df1ff" stroke-opacity=".56" stroke-width="1.2"/>
  <path d="M856 31 H572 L532 55 L572 79 H856 L884 55 L856 31Z"
        fill="#1b0911" fill-opacity=".58" stroke="#ff7482" stroke-opacity=".56" stroke-width="1.2"/>

  <circle cx="76" cy="55" r="34" fill="#07121b" stroke="#9cf7ff" stroke-width="2.2"/>
  <circle cx="76" cy="55" r="25" fill="#07131e" stroke="#dffcff" stroke-opacity=".28" stroke-width="1"/>
  <circle cx="884" cy="55" r="34" fill="#1c0911" stroke="#ff7b86" stroke-width="2.2"/>
  <circle cx="884" cy="55" r="25" fill="#270b15" stroke="#ffd7da" stroke-opacity=".26" stroke-width="1"/>

  <path d="M480 8 L523 47 L523 68 L480 105 L437 68 L437 47 L480 8Z"
        fill="#071018" fill-opacity=".9" stroke="#f6d36c" stroke-width="1.8" filter="url(#goldGlow)"/>
  <path d="M480 22 L506 51 L506 64 L480 89 L454 64 L454 51 L480 22Z"
        fill="#101728" stroke="#8eeeff" stroke-opacity=".34" stroke-width="1"/>
  <path d="M480 31 V79" stroke="#f8d27a" stroke-width="3.4" stroke-linecap="round"/>
  <path d="M458 55 H502" stroke="#f8d27a" stroke-opacity=".65" stroke-width="1.2"/>

  <path d="M106 28 C188 18 310 18 397 26" stroke="#e8fdff" stroke-opacity=".32" stroke-width="1"/>
  <path d="M854 28 C772 18 650 18 563 26" stroke="#ffe0e3" stroke-opacity=".28" stroke-width="1"/>
  <path d="M100 84 C210 97 318 96 392 84" stroke="#7cefff" stroke-opacity=".18" stroke-width="1"/>
  <path d="M860 84 C750 97 642 96 568 84" stroke="#ff7f8b" stroke-opacity=".18" stroke-width="1"/>
</svg>
